<?xml version="1.0" standalone="no"?>
<!DOCTYPE svg PUBLIC "-//W3C//DTD SVG 20010904//EN"
 "http://www.w3.org/TR/2001/REC-SVG-20010904/DTD/svg10.dtd">
<svg version="1.0" xmlns="http://www.w3.org/2000/svg"
 width="1024.000000pt" height="878.000000pt" viewBox="0 0 1024.000000 878.000000"
 preserveAspectRatio="xMidYMid meet">
<metadata>
Created by potrace 1.15, written by Peter Selinger 2001-2017
</metadata>
<g transform="translate(0.000000,878.000000) scale(0.100000,-0.100000)"
fill="#000000" stroke="none">
<path d="M5059 8421 c-17 -19 -49 -37 -104 -56 -179 -61 -385 -176 -590 -330
-101 -76 -370 -310 -422 -366 -20 -22 -22 -42 -37 -305 -9 -155 -16 -297 -16
-316 0 -34 -1 -35 -102 -78 -134 -56 -308 -145 -348 -179 l-31 -26 85 -175
c46 -96 96 -203 109 -237 l26 -63 -51 -92 c-106 -195 -278 -540 -348 -702 -41
-93 -82 -174 -92 -180 -21 -13 -23 -32 -5 -39 6 -3 95 -64 196 -136 l183 -131
138 0 137 0 37 -32 37 -33 -3 -112 -3 -112 -590 416 c-1359 959 -1631 1149
-1658 1161 -16 7 -63 38 -105 70 -42 32 -259 189 -482 350 -223 160 -481 347
-575 415 -93 68 -174 122 -179 119 -21 -12 389 -394 762 -711 l390 -332 7 -62
c10 -91 73 -523 96 -662 37 -219 148 -685 250 -1047 116 -414 377 -1117 559
-1508 l58 -125 12 -175 c13 -206 22 -239 137 -486 70 -151 81 -170 126 -205
26 -21 61 -46 76 -55 23 -14 32 -33 54 -110 14 -52 41 -128 58 -171 39 -93
100 -156 249 -258 56 -38 136 -94 177 -123 41 -28 77 -52 81 -52 20 0 103 86
122 125 l22 46 -28 22 c-49 38 -235 197 -324 277 -47 42 -116 95 -153 117 -49
29 -64 42 -52 47 9 3 30 -1 46 -10 21 -10 53 -15 100 -13 l70 2 117 -114 c64
-63 161 -155 214 -204 106 -99 120 -124 94 -177 -20 -40 -35 -27 174 -152 164
-99 188 -110 213 -100 36 13 38 58 22 379 -8 170 -17 333 -19 360 -4 41 4 24
47 -100 l52 -150 140 -195 c77 -108 167 -235 199 -283 33 -48 63 -87 68 -87 4
0 8 123 8 273 l0 274 -137 169 c-75 93 -157 196 -183 229 l-47 60 -132 476
c-72 261 -131 484 -131 495 0 39 68 199 85 203 14 2 16 -1 10 -15 -4 -11 -21
-58 -38 -105 l-31 -86 32 -114 c18 -63 78 -277 133 -477 l100 -363 180 -219
c201 -246 218 -258 239 -177 26 96 66 152 285 402 l35 40 0 -34 c0 -77 -75
-177 -211 -283 -44 -33 -79 -65 -79 -70 0 -14 20 -5 86 37 53 34 94 42 101 20
1 -5 -58 -91 -133 -190 l-135 -180 4 -50 c10 -118 43 -345 49 -343 4 2 38 38
77 81 42 46 73 72 76 65 2 -7 15 -71 29 -143 61 -323 66 -336 134 -419 13 -17
28 -40 33 -53 5 -13 13 -23 19 -23 15 0 12 62 -5 84 -32 42 -27 93 34 374 39
182 65 280 77 293 17 19 16 20 -10 48 -23 24 -25 29 -12 40 13 11 11 18 -15
51 -34 42 -37 67 -54 381 l-7 126 170 7 c119 5 177 4 191 -4 23 -12 83 -125
131 -245 55 -138 82 -416 61 -623 -11 -108 -40 -293 -56 -356 -6 -22 -5 -28 6
-24 16 5 38 91 88 330 l36 177 115 -84 c114 -83 115 -83 130 -62 8 12 107 156
219 321 168 248 211 319 247 406 43 105 43 106 63 340 l20 235 114 285 c63
157 152 371 197 475 45 105 84 195 87 201 2 6 77 39 166 73 89 34 167 65 174
69 8 5 12 81 14 267 l2 260 -69 39 c-38 21 -88 52 -112 67 -23 16 -46 29 -50
29 -4 0 -17 -15 -29 -34 -22 -35 -114 -76 -595 -268 -98 -39 -178 -75 -178
-80 0 -13 11 -11 189 50 l170 59 -74 -146 -75 -146 -288 -79 c-158 -43 -293
-79 -301 -80 -7 0 -31 25 -54 56 l-40 57 48 56 c26 31 45 59 42 62 -7 6 -80
-55 -327 -278 -96 -86 -189 -169 -207 -183 l-32 -27 -3 385 c-3 370 -4 386
-23 405 -11 10 -287 206 -612 436 l-593 416 0 140 0 139 70 45 c39 25 73 45
76 45 3 0 56 -31 117 -68 62 -38 216 -129 342 -202 127 -73 318 -185 425 -249
107 -64 199 -118 203 -120 4 -1 7 20 5 49 l-3 52 -390 244 c-214 134 -440 274
-502 311 l-112 67 19 25 c10 14 102 128 205 254 l186 227 147 0 c81 1 298 7
482 14 330 14 335 14 357 -6 17 -16 29 -19 60 -14 l38 7 175 -222 c96 -123
188 -240 203 -260 l28 -38 -25 -50 c-23 -44 -38 -57 -146 -123 -111 -67 -136
-88 -110 -88 6 0 42 16 80 35 42 21 84 35 107 35 29 0 59 14 128 58 l90 58 88
-35 87 -35 0 -148 c0 -81 4 -148 8 -148 5 0 18 10 30 23 20 21 22 34 22 135 0
62 4 112 9 112 5 0 16 11 25 24 15 24 14 28 -72 158 -310 467 -916 1194 -1166
1398 l-55 45 -1 148 c0 136 -2 149 -18 154 -18 4 -19 30 -26 497 -4 271 -4
624 0 784 5 198 4 292 -3 292 -6 0 -21 -13 -34 -29z m-1230 -1607 c20 -33 20
-36 4 -52 -22 -22 -67 -122 -88 -197 -10 -33 -20 -64 -22 -68 -3 -5 -18 17
-34 47 -15 31 -41 80 -58 109 l-30 52 101 73 c55 39 102 72 103 72 2 0 12 -16
24 -36z m1434 -521 c109 -236 217 -482 232 -530 l6 -23 -478 0 -478 -1 -171
-182 c-189 -201 -291 -317 -344 -390 -29 -41 -160 -157 -160 -142 0 2 55 80
123 172 68 92 158 217 202 278 208 288 504 651 675 829 112 117 259 248 271
241 3 -3 58 -116 122 -252z m-3263 -579 c179 -152 326 -279 327 -283 2 -3 -8
-19 -21 -36 l-25 -30 -53 51 c-86 83 -346 322 -461 424 -85 76 -106 100 -107
123 0 15 4 27 8 27 4 0 154 -124 332 -276z m-98 -371 c47 -54 151 -178 231
-276 l147 -178 0 -70 c0 -39 5 -102 11 -141 8 -54 8 -73 -1 -82 -9 -8 -14 -8
-17 2 -5 14 -154 92 -176 92 -8 0 -20 -11 -27 -25 -7 -14 -17 -25 -20 -25 -24
0 -135 334 -220 664 -32 123 -36 151 -21 142 5 -3 47 -50 93 -103z m1447
-1788 l1 -90 -62 -40 c-33 -22 -74 -48 -89 -58 l-29 -19 0 244 0 243 90 -95
89 -95 0 -90z m-710 159 c109 -59 414 -260 465 -308 25 -24 36 -41 32 -52 -3
-8 -6 -27 -6 -41 0 -25 -1 -25 -18 -10 -10 10 -25 17 -33 17 -21 0 -167 -81
-306 -168 -119 -75 -153 -110 -153 -157 0 -10 -10 -15 -30 -15 -25 0 -37 10
-75 62 -35 48 -45 71 -45 101 0 34 2 38 15 27 8 -7 12 -16 9 -21 -5 -9 86
-148 97 -149 4 0 18 23 32 52 l26 52 -43 60 c-54 77 -99 153 -170 286 l-56
106 45 67 c43 63 108 137 122 137 4 0 45 -21 92 -46z m1273 7 c40 -15 210 -79
378 -141 168 -62 314 -119 325 -126 27 -19 38 -17 31 4 -5 13 -2 12 16 -6 l23
-22 -65 -65 -65 -65 -130 31 c-71 17 -197 46 -280 64 l-149 32 -93 152 c-85
139 -99 171 -73 171 5 0 42 -13 82 -29z m2698 -330 c0 -78 -1 -81 -50 -160
-28 -44 -65 -110 -82 -146 -18 -36 -35 -65 -39 -65 -4 0 -12 13 -19 30 -7 16
-38 71 -70 122 l-58 92 21 38 c12 21 40 62 63 91 l40 52 80 11 c43 6 87 12 97
13 15 1 17 -9 17 -78z m-378 -208 c12 -27 38 -92 58 -146 l37 -98 -34 -112
c-19 -62 -54 -182 -79 -267 -44 -152 -104 -299 -131 -321 -7 -6 -13 -30 -13
-53 0 -22 -7 -49 -14 -59 -8 -10 -11 -27 -9 -38 6 -22 -13 -91 -34 -125 -11
-18 -9 -30 15 -90 l29 -69 -21 -252 -21 -252 -100 -143 -100 -144 4 243 3 244
-57 95 c-76 127 -183 267 -295 386 l-91 98 -222 2 -222 3 -37 350 c-20 193
-37 365 -38 383 l0 33 36 -25 36 -24 117 88 c64 48 186 138 271 200 179 129
164 125 323 65 l98 -36 217 54 c119 30 225 55 235 56 12 1 25 -14 39 -46z"/>
<path d="M1343 6868 c3 -29 9 -93 13 -141 l7 -88 69 -44 c38 -25 71 -45 73
-45 3 0 5 48 5 108 l0 107 -78 78 c-42 42 -81 77 -86 77 -5 0 -6 -24 -3 -52z"/>
<path d="M6763 6743 c-99 -169 -170 -329 -193 -435 -12 -52 -11 -62 5 -98 10
-22 21 -40 25 -40 4 0 14 35 23 78 27 121 115 323 223 509 18 31 18 32 0 52
-11 12 -22 21 -25 21 -4 0 -30 -39 -58 -87z"/>
<path d="M2724 6491 c-50 -30 -111 -110 -164 -212 -58 -113 -114 -259 -103
-269 15 -14 644 -380 653 -380 4 0 -1 39 -11 87 -77 354 -203 690 -284 762
-42 36 -50 37 -91 12z"/>
<path d="M7681 5259 l-95 -89 -23 -148 c-71 -456 -90 -614 -108 -904 l-6 -97
41 -21 c45 -23 144 -118 200 -193 19 -25 38 -47 41 -47 3 0 11 123 18 273 21
471 43 649 110 891 18 67 19 70 1 155 -22 103 -65 250 -77 261 -4 5 -50 -32
-102 -81z"/>
<path d="M7097 3293 l-45 -68 -6 -115 c-10 -177 -35 -435 -52 -538 -9 -52 -14
-96 -11 -98 2 -3 64 -2 136 2 l131 7 0 28 c0 26 4 28 58 39 31 7 73 15 92 19
l35 8 -3 -38 c-2 -21 1 -52 7 -69 l10 -31 -397 -317 c-218 -174 -430 -341
-469 -371 -40 -29 -70 -57 -68 -62 3 -4 107 42 231 102 124 60 229 109 233
109 4 0 15 -22 25 -49 l18 -50 110 -37 c89 -29 107 -39 96 -49 -7 -6 -78 -70
-158 -140 -80 -71 -169 -151 -197 -179 -52 -49 -52 -50 -36 -76 37 -59 88
-120 100 -120 7 0 92 59 190 130 98 72 198 145 223 163 75 54 138 169 127 230
-3 21 -4 21 -11 2 -25 -65 -69 -144 -90 -164 l-25 -23 -20 33 c-24 40 -44 122
-39 163 3 25 21 41 145 120 143 92 167 115 278 271 21 31 -7 25 -46 -9 -24
-20 -46 -36 -51 -36 -12 0 -10 30 13 291 12 137 21 332 22 470 2 224 1 238
-18 259 -15 16 -342 190 -487 258 -4 2 -27 -27 -51 -65z"/>
</g>
</svg>
